<svg width="847" height="273" viewBox="0 0 847 273" fill="none" xmlns="http://www.w3.org/2000/svg">
<g filter="url(#filter0_d)">
<path d="M181.47 92.3888C187.385 84.5021 171.47 27.1932 121.957 27.1932C72.4444 27.1932 49.0841 40.1932 20.4571 99.6932C12.9571 131.693 5.98923 163.628 12.9571 197.693C19.9249 231.758 60.2561 250.519 60.2561 250.519C60.2561 250.519 108.193 257.27 119.629 250.519C131.065 243.767 157.084 231.741 167.084 213.68M294.053 157.811C294.123 157.501 294.167 157.185 294.187 156.864M294.053 157.811C294.099 157.484 294.144 157.169 294.187 156.864M294.053 157.811C292.88 166.186 293.957 157.341 295.578 151.988M294.187 156.864C294.752 147.763 275.869 134.327 263.888 132.193C263.888 132.193 251.575 132.193 236.173 140.127C230.234 148.886 224.147 140.127 204.5 179.299C195.047 198.146 204.5 223.43 216.872 234.343C229.245 245.256 251.575 234.343 251.575 234.343C263.888 227.396 274.835 214.009 274.835 214.009C281.92 206.201 294.84 191.199 294.84 169C294.84 165.301 295.463 156.259 295.578 151.988M294.187 156.864C295.422 148.187 295.673 148.46 295.578 151.988M295.578 151.988C297.844 144.505 301.174 143.846 300.912 206.571C300.912 206.571 297.902 229.554 300.912 234.343C305.065 240.952 308.894 238.018 316.654 236.821M361.55 153.923C361.55 161.128 362.135 169.197 362.864 177.459M362.864 177.459C364.021 190.585 365.538 204.198 365.64 215.61C365.654 217.166 367.758 240.849 363.595 231.741C358.524 220.649 361.55 204.125 361.55 192.434C361.55 187.055 361.913 182.104 362.864 177.459ZM362.864 177.459C364.634 168.813 368.444 161.229 375.75 153.923C390.247 139.426 399.717 148.514 403.356 166.192C405.869 178.396 406.443 207.573 406.548 219.973M406.548 219.973C406.6 226.107 406.537 228.135 406.537 221.971C406.537 221.307 406.541 220.641 406.548 219.973ZM406.548 219.973C406.791 198.065 411.128 174.197 426.986 157.899C434.78 149.888 444.305 140.958 456.636 143.698C469.16 146.481 463.793 191.235 463.793 199.819C463.793 210.398 456.636 238.693 477.654 238.693M527.21 10.1932C527.21 54.5264 529.255 97.6541 529.255 141.996C529.255 153.434 528.847 162.522 528.444 173.338M528.444 173.338C528.052 183.883 527.664 196.071 527.664 213.68C527.334 215.123 527.193 217.748 527.143 220.187M528.444 173.338C525.713 186.441 526.839 207.033 527.143 220.187M528.444 173.338C528.881 171.245 529.415 169.343 530.068 167.693C536.024 152.628 541.895 146.645 561.518 146.199C570.332 145.999 597.928 152.931 603.779 160.193C611.814 170.168 613.842 170.128 618.03 182.693C623.07 197.811 617.582 215.361 603.779 226.404C592.929 235.084 527.21 250.881 527.21 225.04M527.143 220.187C527.065 223.996 527.21 227.351 527.21 225.04M527.143 220.187C527.184 221.951 527.21 223.58 527.21 225.04M652.654 103.193C654.891 103.302 675.997 109.146 664.923 115.008C659.412 117.926 652.654 110.177 652.654 105.238M662.654 149.193C669.577 179.049 666.744 210.686 666.744 241.212M755.113 236.997C749.11 236.847 731.944 219.954 727.973 216.641M755.113 236.997C761.717 238.68 769.103 247.91 802.27 228.742C821.899 207.561 833.292 192.097 823.703 168.125C805.934 123.7 782.101 130.569 771.071 132.778C760.976 134.8 734.747 147.526 727.048 164.215C719.349 180.904 712.168 195.433 727.973 216.641M755.113 236.997C750.184 235.741 745.82 232.038 727.973 216.641" stroke="#F0F2F3" stroke-width="20" stroke-linecap="round" stroke-linejoin="round"/>
</g>
<defs>
<filter id="filter0_d" x="0.0886755" y="0.193237" width="846.072" height="272.326" filterUnits="userSpaceOnUse" color-interpolation-filters="sRGB">
<feFlood flood-opacity="0" result="BackgroundImageFix"/>
<feColorMatrix in="SourceAlpha" type="matrix" values="0 0 0 0 0 0 0 0 0 0 0 0 0 0 0 0 0 0 127 0"/>
<feOffset dx="5" dy="5"/>
<feGaussianBlur stdDeviation="2"/>
<feColorMatrix type="matrix" values="0 0 0 0 0 0 0 0 0 0 0 0 0 0 0 0 0 0 0.25 0"/>
<feBlend mode="normal" in2="BackgroundImageFix" result="effect1_dropShadow"/>
<feBlend mode="normal" in="SourceGraphic" in2="effect1_dropShadow" result="shape"/>
</filter>
</defs>
</svg>
